<svg width="20" height="20" viewBox="0 0 20 20" fill="none" xmlns="http://www.w3.org/2000/svg">
<path d="M19.6767 18.9141C19.6767 19.2433 19.4098 19.5102 19.0806 19.5102H14.5582C14.0272 19.5102 13.7612 18.8683 14.1366 18.4927L15.1412 17.4876C15.3739 17.2549 15.3738 16.8776 15.1411 16.6448L12.2534 13.7561C12.0206 13.5233 12.0207 13.1459 12.2534 12.9131L13.0916 12.075C13.3243 11.8422 13.7017 11.8422 13.9345 12.0749L16.8232 14.9627C17.056 15.1954 17.4333 15.1954 17.6661 14.9628L18.6592 13.9701C19.0348 13.5947 19.6767 13.8607 19.6767 14.3917V18.9141ZM2.28299 19.5102C2.28261 19.5102 2.28224 19.5101 2.28197 19.5098L1.02272 18.2506C0.789994 18.0178 0.789918 17.6405 1.02255 17.4077L15.1305 3.28849C15.3631 3.05567 15.3631 2.67837 15.1303 2.44564L14.1372 1.45249C13.7617 1.07696 14.0276 0.434875 14.5587 0.434875H19.0806C19.4098 0.434875 19.6767 0.701761 19.6767 1.03098V5.55291C19.6767 6.08398 19.0346 6.34994 18.6591 5.97441L17.666 4.98128C17.4332 4.74854 17.0559 4.74848 16.8231 4.98113L2.28401 19.5098C2.28374 19.5101 2.28337 19.5102 2.28299 19.5102V19.5102ZM7.18661 7.86108C6.95358 8.09247 6.57729 8.0918 6.34508 7.85959L1.02289 2.5374C0.790096 2.30461 0.790096 1.92717 1.02289 1.69438L1.86129 0.855979C2.09393 0.623344 2.47105 0.623162 2.7039 0.855571L8.03422 6.1756C8.26798 6.40891 8.26749 6.7878 8.03314 7.02051L7.18661 7.86108Z" fill="white"/>
</svg>
